<?xml version="1.0" standalone="no"?>
<!DOCTYPE svg PUBLIC "-//W3C//DTD SVG 20010904//EN"
 "http://www.w3.org/TR/2001/REC-SVG-20010904/DTD/svg10.dtd">
<svg version="1.0" xmlns="http://www.w3.org/2000/svg"
 width="64.000000pt" height="64.000000pt" viewBox="0 0 64.000000 64.000000"
 preserveAspectRatio="xMidYMid meet">

<g transform="translate(0.000000,64.000000) scale(0.100000,-0.100000)"
fill="#000000" stroke="none">
<path d="M30 570 c0 -5 11 -12 25 -16 l25 -6 0 -193 c0 -167 2 -194 17 -206
22 -19 284 -20 290 -1 4 9 -25 12 -120 12 -69 0 -132 3 -141 6 -14 5 -16 30
-16 170 l0 164 224 0 c124 0 227 -3 229 -7 3 -5 -14 -62 -37 -128 -35 -103
-45 -120 -66 -126 -14 -4 -89 -7 -167 -8 -86 -1 -143 -5 -143 -11 0 -17 47
-22 183 -18 177 4 174 2 225 159 27 83 38 129 32 143 -7 20 -14 21 -244 24
l-236 2 0 25 c0 22 -4 25 -40 25 -22 0 -40 -4 -40 -10z"/>
<path d="M92 88 c-15 -15 -15 -51 0 -66 15 -15 61 -15 76 0 7 7 12 21 12 33 0
28 -19 45 -50 45 -14 0 -31 -5 -38 -12z m58 -33 c0 -8 -9 -15 -20 -15 -11 0
-20 7 -20 15 0 8 9 15 20 15 11 0 20 -7 20 -15z"/>
<path d="M342 88 c-15 -15 -15 -51 0 -66 15 -15 61 -15 76 0 7 7 12 21 12 33
0 28 -19 45 -50 45 -14 0 -31 -5 -38 -12z m58 -33 c0 -8 -9 -15 -20 -15 -11 0
-20 7 -20 15 0 8 9 15 20 15 11 0 20 -7 20 -15z"/>
</g>
</svg>
